<?xml version="1.0" encoding="UTF-8"?>
<svg version="1.1" xmlns="http://www.w3.org/2000/svg" width="375" height="134">
<path d="M0 0 C123.75 0 247.5 0 375 0 C375 44.22 375 88.44 375 134 C251.25 134 127.5 134 0 134 C0 89.78 0 45.56 0 0 Z " fill="#FCFCFC" transform="translate(0,0)"/>
<path d="M0 0 C0.07526466 5.40361633 0.12911695 10.80691453 0.16479492 16.2109375 C0.17969888 18.04172086 0.20002914 19.87246973 0.22631836 21.703125 C0.50064246 41.32536625 -0.87828791 60.05976356 -14.26953125 75.640625 C-20.97247275 82.51860491 -28.10229906 87.8458354 -36.25341797 92.90722656 C-37.85404146 93.908679 -39.43040247 94.94864143 -41.00390625 95.9921875 C-41.86886719 96.55164063 -42.73382813 97.11109375 -43.625 97.6875 C-44.35976562 98.16574219 -45.09453125 98.64398438 -45.8515625 99.13671875 C-48.7371954 100.29621852 -50.05076358 99.96417344 -53 99 C-62.29517425 94.50159468 -70.26351494 88.81763566 -78 82 C-78.96164063 81.19433594 -79.92328125 80.38867188 -80.9140625 79.55859375 C-94.19946486 68.11739145 -98.54298733 55.16275223 -100 38 C-100.29816896 31.37910196 -100.19136411 24.75014113 -100.125 18.125 C-100.11494039 16.35807804 -100.10581986 14.59115048 -100.09765625 12.82421875 C-100.07590126 8.54933746 -100.04153949 4.27473293 -100 0 C-67.45032972 -14.98384736 -32.46342628 -16.47494843 0 0 Z " fill="#F7F7F8" transform="translate(116,26)"/>
<path d="M0 0 C2.45711216 0.51297605 4.27386661 1.32769699 6.4765625 2.52734375 C8.16323059 3.23765573 9.85071919 3.94602283 11.5390625 4.65234375 C12.85552897 5.26894514 14.16959575 5.89085403 15.4765625 6.52734375 C13.98442992 11.15989491 11.29905381 14.47532275 8.2265625 18.15234375 C3.50339756 23.92422118 -1.00663592 29.81229184 -5.3984375 35.83984375 C-10.58550498 42.94404221 -15.8823857 49.94474801 -21.32128906 56.8581543 C-24.32268456 60.67684114 -27.27426187 64.52082634 -30.15234375 68.43359375 C-31.03297485 69.62057861 -31.03297485 69.62057861 -31.93139648 70.83154297 C-33.05208247 72.34629357 -34.16278689 73.86849492 -35.26196289 75.39892578 C-35.76332764 76.07294434 -36.26469238 76.74696289 -36.78125 77.44140625 C-37.2158252 78.03904785 -37.65040039 78.63668945 -38.09814453 79.25244141 C-39.5234375 80.52734375 -39.5234375 80.52734375 -43.5234375 80.52734375 C-45.86293879 78.69604874 -47.95309191 76.88631989 -50.0859375 74.83984375 C-50.66279297 74.30939453 -51.23964844 73.77894531 -51.83398438 73.23242188 C-54.94739016 70.30574862 -57.8665486 67.53980963 -59.5234375 63.52734375 C-58.51973121 59.3838383 -54.59071226 55.87936762 -51.8359375 52.71484375 C-51.29428955 52.08755371 -50.7526416 51.46026367 -50.19458008 50.81396484 C-46.95789465 47.0926239 -43.64216634 43.51376914 -40.08984375 40.08984375 C-38.3459451 38.35029398 -36.75163564 36.52213292 -35.1484375 34.65234375 C-32.55709545 31.64266845 -29.85088967 28.81645759 -27.0234375 26.02734375 C-24.31960357 23.35980289 -21.73088215 20.67274883 -19.2734375 17.77734375 C-18.02727607 16.35729933 -16.77656244 14.94124698 -15.5234375 13.52734375 C-15.05389648 12.98368164 -14.58435547 12.44001953 -14.10058594 11.87988281 C-4.54843203 0.95052372 -4.54843203 0.95052372 0 0 Z " fill="#19233F" transform="translate(90.5234375,24.47265625)"/>
<path d="M0 0 C6.71168635 -0.24307918 12.4022257 0.52259359 18.875 2.25 C19.74616455 2.47526367 20.6173291 2.70052734 21.51489258 2.93261719 C38.38873094 7.38873094 38.38873094 7.38873094 41 10 C41.12629223 12.5520598 41.18873178 15.07538955 41.203125 17.62890625 C41.20882507 18.41079819 41.21452515 19.19269012 41.22039795 19.99827576 C41.22987674 21.66704957 41.23639328 23.33584235 41.24023438 25.00463867 C41.24976215 27.50020025 41.28067712 29.99487287 41.3125 32.49023438 C41.43405721 50.62939767 39.4194033 68.0449472 26.35546875 81.81640625 C21.91601406 85.93192063 17.22208549 89.92090367 12 93 C11.01 92.67 10.02 92.34 9 92 C11.64389269 88.47480975 14.27219337 85.85923386 17.8125 83.25 C26.45579321 76.45247632 32.67632041 68.20008287 34.4609375 57.14453125 C34.70977499 54.76039908 34.89810772 52.39446849 35 50 C34.443125 50.70125 33.88625 51.4025 33.3125 52.125 C18.74510183 70.23581934 1.90907299 82.75485206 -21 88 C-20.63358398 87.51168701 -20.26716797 87.02337402 -19.88964844 86.52026367 C-17.30418091 83.0739361 -14.72001537 79.62666021 -12.140625 76.17578125 C-6.74889449 68.96678996 -1.32021186 61.79094174 4.1796875 54.6640625 C9.82847115 47.33602307 15.42585912 39.96850281 21.02246094 32.60058594 C22.90963365 30.11883733 24.80226015 27.64132699 26.6953125 25.1640625 C27.79721468 23.71379969 28.89879707 22.26329383 30 20.8125 C30.51030762 20.14758545 31.02061523 19.4826709 31.54638672 18.79760742 C34.13397773 15.73860173 34.13397773 15.73860173 35 12 C32.77585391 11.13020539 30.54727408 10.27916816 28.3125 9.4375 C27.68666016 9.19064453 27.06082031 8.94378906 26.41601562 8.68945312 C22.43701919 7.21034974 20.07346763 7.03692096 16 8 C15.01 7.34 14.02 6.68 13 6 C13 5.67 13 5.34 13 5 C7.06 4.34 1.12 3.68 -5 3 C-5 2.67 -5 2.34 -5 2 C-3.35 1.67 -1.7 1.34 0 1 C0 0.67 0 0.34 0 0 Z " fill="#F8F8F8" transform="translate(70,19)"/>
<path d="M0 0 C0.07526466 5.40361633 0.12911695 10.80691453 0.16479492 16.2109375 C0.17969888 18.04172086 0.20002914 19.87246973 0.22631836 21.703125 C0.50064246 41.32536625 -0.87828791 60.05976356 -14.26953125 75.640625 C-20.97247275 82.51860491 -28.10229906 87.8458354 -36.25341797 92.90722656 C-37.85404146 93.908679 -39.43040247 94.94864143 -41.00390625 95.9921875 C-41.86886719 96.55164063 -42.73382813 97.11109375 -43.625 97.6875 C-44.35976562 98.16574219 -45.09453125 98.64398438 -45.8515625 99.13671875 C-48.7371954 100.29621852 -50.05076358 99.96417344 -53 99 C-62.29517425 94.50159468 -70.26351494 88.81763566 -78 82 C-78.96164063 81.19433594 -79.92328125 80.38867188 -80.9140625 79.55859375 C-94.19946486 68.11739145 -98.54298733 55.16275223 -100 38 C-100.29816896 31.37910196 -100.19136411 24.75014113 -100.125 18.125 C-100.11494039 16.35807804 -100.10581986 14.59115048 -100.09765625 12.82421875 C-100.07590126 8.54933746 -100.04153949 4.27473293 -100 0 C-67.45032972 -14.98384736 -32.46342628 -16.47494843 0 0 Z M-96 3 C-98.04533337 39.39483889 -98.04533337 39.39483889 -83.05859375 71.01171875 C-82.37925781 71.66785156 -81.69992188 72.32398437 -81 73 C-79.81083984 74.18529297 -79.81083984 74.18529297 -78.59765625 75.39453125 C-71.66469512 82.02207559 -64.18172049 87.06066504 -56 92 C-55.16210938 92.62003906 -54.32421875 93.24007812 -53.4609375 93.87890625 C-51.01913062 95.26847599 -51.01913062 95.26847599 -48.234375 94.53515625 C-43.97868774 92.51524672 -40.14611716 90.07615964 -36.25 87.4375 C-35.45303711 86.89955811 -34.65607422 86.36161621 -33.83496094 85.80737305 C-19.11509811 75.71782145 -9.28433752 64.87200823 -5.8984375 46.84765625 C-4.51517341 38.18823614 -4.78581805 29.49151401 -4.875 20.75 C-4.88505512 19.02214063 -4.89417647 17.29427557 -4.90234375 15.56640625 C-4.92414461 11.37746077 -4.9585331 7.18879506 -5 3 C-10.9704411 0.16466129 -16.86280813 -2.00409604 -23.25 -3.6875 C-24.02601562 -3.89955078 -24.80203125 -4.11160156 -25.6015625 -4.33007812 C-27.72997846 -4.90576742 -29.86272928 -5.45826408 -32 -6 C-32.80308594 -6.20753906 -33.60617188 -6.41507813 -34.43359375 -6.62890625 C-55.15932715 -9.6257779 -76.82404637 -4.81502011 -96 3 Z " fill="#182140" transform="translate(116,26)"/>
<path d="M0 0 C0.33 0 0.66 0 1 0 C0.72199236 12.83889822 -3.31144339 22.24002163 -12.26171875 31.46875 C-16.55871029 35.44086201 -21.13057501 38.76951916 -26 42 C-26.97839844 42.68707031 -27.95679687 43.37414062 -28.96484375 44.08203125 C-29.92519531 44.73558594 -30.88554688 45.38914063 -31.875 46.0625 C-32.73867187 46.65160156 -33.60234375 47.24070313 -34.4921875 47.84765625 C-37.6373673 49.29287127 -38.7630315 49.16904173 -42 48 C-45.11328125 46.22265625 -45.11328125 46.22265625 -48.3125 44.0625 C-49.38113281 43.35222656 -50.44976562 42.64195313 -51.55078125 41.91015625 C-52.35902344 41.27980469 -53.16726562 40.64945313 -54 40 C-54 39.34 -54 38.68 -54 38 C-52.99582031 37.64808594 -51.99164063 37.29617187 -50.95703125 36.93359375 C-30.67673951 29.67976753 -14.34704755 19.13426342 -1.3828125 1.72265625 C-0.92648438 1.15417969 -0.47015625 0.58570312 0 0 Z " fill="#19223F" transform="translate(105,68)"/>
<path d="M0 0 C-3.60912072 2.08465752 -7.41733989 2.89507762 -11.4375 3.8125 C-28.61124686 7.9623842 -43.92525629 15.30195914 -57.70703125 26.3125 C-60 28 -60 28 -62 28 C-62 21.07 -62 14.14 -62 7 C-42.2401544 -0.3849928 -20.96290682 -5.64385953 0 0 Z " fill="#19223F" transform="translate(87,24)"/>
<path d="M0 0 C4.29 0 8.58 0 13 0 C12.01 0.66 11.02 1.32 10 2 C9.41312216 5.34613512 9.41312216 5.34613512 9.3125 9.125 C9.209375 11.39375 9.10625 13.6625 9 16 C15.6 16 22.2 16 29 16 C29 11.05 29 6.1 29 1 C28.34 0.67 27.68 0.34 27 0 C30.96 0 34.92 0 39 0 C38.34 0.33 37.68 0.66 37 1 C37 12.55 37 24.1 37 36 C37.99 36.495 37.99 36.495 39 37 C35.37 37 31.74 37 28 37 C28.33 31.06 28.66 25.12 29 19 C22.4 19 15.8 19 9 19 C9.33 24.61 9.66 30.22 10 36 C10.66 36.33 11.32 36.66 12 37 C8.04 37 4.08 37 0 37 C0.99 36.505 0.99 36.505 2 36 C1.88188994 31.19432577 1.75765177 26.38886432 1.62768555 21.58349609 C1.58432462 19.94812347 1.54265039 18.31270523 1.50268555 16.67724609 C1.44501088 14.32896159 1.38130871 11.98090696 1.31640625 9.6328125 C1.29969376 8.89942657 1.28298126 8.16604065 1.26576233 7.41043091 C1.21362038 3.57797692 1.21362038 3.57797692 0 0 Z " fill="#161D3C" transform="translate(317,27)"/>
<path d="M0 0 C0.04992943 5.47687495 0.0859669 10.95361354 0.10986328 16.43066406 C0.11983921 18.2887605 0.13342478 20.14684158 0.15087891 22.00488281 C0.24420062 32.20439681 0.2842229 42.00298387 -2 52 C-3.65 51.67 -5.3 51.34 -7 51 C-6.9285376 50.42854248 -6.8570752 49.85708496 -6.78344727 49.26831055 C-5.75211968 39.79000467 -5.88918737 30.33191196 -5.9375 20.8125 C-5.94252621 19.08007942 -5.94708713 17.34765743 -5.95117188 15.61523438 C-5.96208598 11.41012072 -5.97928848 7.20507634 -6 3 C-27.98798306 -4.57976137 -47.53787962 -9.02731555 -70.65234375 -3.55859375 C-74.10869886 -2.98186238 -76.60671879 -3.21773212 -80 -4 C-79.67 -5.32 -79.34 -6.64 -79 -8 C-51.42795449 -14.10636967 -25.66657267 -13.02559556 0 0 Z " fill="#1F2845" transform="translate(116,26)"/>
<path d="M0 0 C9.9 0 19.8 0 30 0 C24.37553867 10.1240304 24.37553867 10.1240304 21.30078125 14.5859375 C20.64916016 15.53597656 19.99753906 16.48601563 19.32617188 17.46484375 C18.66166016 18.42519531 17.99714844 19.38554688 17.3125 20.375 C15.9752581 22.32031091 14.63801841 24.26562334 13.30078125 26.2109375 C12.71466064 27.05962402 12.12854004 27.90831055 11.5246582 28.78271484 C10.33550264 30.51208407 9.16418461 32.25372308 8 34 C10.91884528 33.93994146 13.83261639 33.85291384 16.75 33.75 C17.9875 33.72873047 17.9875 33.72873047 19.25 33.70703125 C24.3111287 33.53289188 24.3111287 33.53289188 28.578125 30.953125 C29.04734375 30.30859375 29.5165625 29.6640625 30 29 C29.67 31.64 29.34 34.28 29 37 C18.77 37 8.54 37 -2 37 C3.61997406 26.88404669 3.61997406 26.88404669 5.9375 23.68359375 C6.44023437 22.98169922 6.94296875 22.27980469 7.4609375 21.55664062 C7.96882812 20.85732422 8.47671875 20.15800781 9 19.4375 C12.87501289 14.07247581 16.56327841 8.65785498 20 3 C17.37461716 3.14053872 14.74982573 3.28718947 12.125 3.4375 C11.00544922 3.49647461 11.00544922 3.49647461 9.86328125 3.55664062 C5.80013136 3.71573624 5.80013136 3.71573624 2 5 C1.01 6.485 1.01 6.485 0 8 C0 5.36 0 2.72 0 0 Z " fill="#1A2341" transform="translate(131,27)"/>
<path d="M0 0 C0 3.3 0 6.6 0 10 C-0.66 10 -1.32 10 -2 10 C-2.2475 9.21625 -2.495 8.4325 -2.75 7.625 C-4.22594134 4.52552318 -4.85320479 4.16666897 -8 3 C-10.91242956 2.684052 -10.91242956 2.684052 -14 2.75 C-15.03125 2.74484375 -16.0625 2.7396875 -17.125 2.734375 C-20.06747055 3.00623369 -21.61020597 3.29006117 -24 5 C-28.43157322 10.63744349 -27.70554084 17.17709935 -27 24 C-25.06332237 28.49309209 -22.4622368 31.0450597 -18.06640625 33.3046875 C-14.07240601 34.64860441 -10.13191874 34.7355248 -6 34 C-3.45354496 32.29039594 -3.45354496 32.29039594 -2 30 C-1.34 29.34 -0.68 28.68 0 28 C0.21092457 31.09356031 0.3137513 33.344189 -1.0390625 36.171875 C-3.92753226 38.86471135 -6.81456676 38.59943761 -10.5625 38.5 C-11.63624878 38.48187256 -11.63624878 38.48187256 -12.73168945 38.46337891 C-19.39549788 38.21559786 -25.46974916 37.06066878 -30.64453125 32.57421875 C-35.52302156 27.13336645 -36.46407769 21.71017985 -36.3125 14.65234375 C-35.70513977 9.49737379 -32.76653017 6.56161353 -29.0625 3.25 C-20.64473163 -2.93448288 -9.89419945 -1.88460942 0 0 Z " fill="#192340" transform="translate(308,27)"/>
<path d="M0 0 C7.59 0 15.18 0 23 0 C23 1.98 23 3.96 23 6 C22.01 5.34 21.02 4.68 20 4 C16.34087399 3.43868689 12.69742878 3.26099497 9 3 C9 7.29 9 11.58 9 16 C15.435 15.505 15.435 15.505 22 15 C22 17.64 22 20.28 22 23 C21.34 22.01 20.68 21.02 20 20 C17.3443272 19.41651248 17.3443272 19.41651248 14.375 19.3125 C12.60125 19.209375 10.8275 19.10625 9 19 C9.33 23.95 9.66 28.9 10 34 C11.60875 34.020625 13.2175 34.04125 14.875 34.0625 C15.77992188 34.07410156 16.68484375 34.08570313 17.6171875 34.09765625 C20.0168585 34.16249257 20.0168585 34.16249257 22 33 C22.33 32.01 22.66 31.02 23 30 C23.66 30 24.32 30 25 30 C24.67 32.31 24.34 34.62 24 37 C16.41 37 8.82 37 1 37 C1.33 25.12 1.66 13.24 2 1 C1.34 0.67 0.68 0.34 0 0 Z " fill="#1D2643" transform="translate(241,27)"/>
<path d="M0 0 C8.25 0 16.5 0 25 0 C25 2.31 25 4.62 25 7 C24.34 6.01 23.68 5.02 23 4 C20.3443272 3.41651248 20.3443272 3.41651248 17.375 3.3125 C15.60125 3.209375 13.8275 3.10625 12 3 C12 7.29 12 11.58 12 16 C18.435 15.505 18.435 15.505 25 15 C24.67 17.64 24.34 20.28 24 23 C23.34 22.01 22.68 21.02 22 20 C19.57478506 19.41810734 19.57478506 19.41810734 16.875 19.3125 C15.96492187 19.24675781 15.05484375 19.18101563 14.1171875 19.11328125 C13.41851562 19.07589844 12.71984375 19.03851563 12 19 C12.14026283 21.31284456 12.28735558 23.62527591 12.4375 25.9375 C12.51871094 27.22527344 12.59992188 28.51304688 12.68359375 29.83984375 C12.64919188 32.86023957 12.64919188 32.86023957 14 34 C15.85287502 34.07226502 17.70833878 34.0838122 19.5625 34.0625 C20.57441406 34.05347656 21.58632812 34.04445312 22.62890625 34.03515625 C23.41136719 34.02355469 24.19382813 34.01195312 25 34 C25.66 32.68 26.32 31.36 27 30 C27.04254356 31.99954746 27.04080783 34.00041636 27 36 C26 37 26 37 23.77514648 37.11352539 C22.81680908 37.10828857 21.85847168 37.10305176 20.87109375 37.09765625 C19.31938477 37.09282227 19.31938477 37.09282227 17.73632812 37.08789062 C16.64771484 37.07951172 15.55910156 37.07113281 14.4375 37.0625 C12.7987793 37.05573242 12.7987793 37.05573242 11.12695312 37.04882812 C8.41791505 37.03699826 5.70898401 37.02051543 3 37 C3.33 36.34 3.66 35.68 4 35 C4.08649451 32.51900266 4.11565054 30.06655072 4.09765625 27.5859375 C4.09553383 26.49147812 4.09553383 26.49147812 4.09336853 25.37490845 C4.08776531 23.04156415 4.07521235 20.70831536 4.0625 18.375 C4.05748541 16.79427222 4.05292243 15.21354293 4.04882812 13.6328125 C4.03779484 9.75517146 4.02052811 5.87760193 4 2 C2.68 1.34 1.36 0.68 0 0 Z " fill="#1B2441" transform="translate(167,27)"/>
<path d="M0 0 C11.55 0 23.1 0 35 0 C35 2.64 35 5.28 35 8 C34.34 8 33.68 8 33 8 C33 7.01 33 6.02 33 5 C29.04 4.67 25.08 4.34 21 4 C21.11813019 8.52085371 21.24236976 13.04148214 21.37231445 17.56201172 C21.41566926 19.10037653 21.45734395 20.63878963 21.49731445 22.17724609 C21.55500398 24.3865414 21.61870179 26.59559348 21.68359375 28.8046875 C21.70030624 29.49432587 21.71701874 30.18396423 21.73423767 30.89450073 C21.80806995 34.57114264 21.80806995 34.57114264 23 38 C19.37 38 15.74 38 12 38 C12.33 37.34 12.66 36.68 13 36 C13.15608023 33.59439727 13.25804458 31.21297228 13.31640625 28.8046875 C13.33718735 28.09724396 13.35796844 27.38980042 13.37937927 26.66091919 C13.44481078 24.39904575 13.50372974 22.13705538 13.5625 19.875 C13.60569133 18.34243578 13.64930582 16.80988343 13.69335938 15.27734375 C13.80048555 11.51834927 13.9017709 7.75923708 14 4 C12.06166004 4.08715017 10.1242571 4.19532964 8.1875 4.3125 C6.56908203 4.39951172 6.56908203 4.39951172 4.91796875 4.48828125 C1.82502483 5.03068507 0.86977097 5.55289624 -1 8 C-0.67 5.36 -0.34 2.72 0 0 Z " fill="#161F3D" transform="translate(199,26)"/>
<path d="M0 0 C3.3 0 6.6 0 10 0 C10.12375 1.175625 10.12375 1.175625 10.25 2.375 C11.24365069 7.177645 13.08713518 11.49809489 15 16 C17.71340928 12.79677758 18.93064936 9.73725031 20.1875 5.75 C20.785625 3.8525 21.38375 1.955 22 0 C29.92 0 37.84 0 46 0 C46 1.65 46 3.3 46 5 C45.34 4.34 44.68 3.68 44 3 C41.67724823 2.59952556 39.34260643 2.2602896 37 2 C37 4.97 37 7.94 37 11 C39.64 10.67 42.28 10.34 45 10 C45 11.65 45 13.3 45 15 C44.34 14.34 43.68 13.68 43 13 C41.01178687 12.60235737 39.01055661 12.26224651 37 12 C37.495 16.95 37.495 16.95 38 22 C41.41656024 22.16677282 41.41656024 22.16677282 45 22 C45.66 21.34 46.32 20.68 47 20 C46.505 22.475 46.505 22.475 46 25 C40.72 25 35.44 25 30 25 C30.66 24.67 31.32 24.34 32 24 C32 16.41 32 8.82 32 1 C26.16983862 1.26188817 26.16983862 1.26188817 24.40087891 4.13305664 C23.81959229 5.50772095 23.81959229 5.50772095 23.2265625 6.91015625 C22.57880859 8.39418945 22.57880859 8.39418945 21.91796875 9.90820312 C21.49128906 10.94912109 21.06460938 11.99003906 20.625 13.0625 C20.17511719 14.10728516 19.72523438 15.15207031 19.26171875 16.22851562 C18.15331138 18.81086896 17.0674206 21.40049825 16 24 C15.01 24 14.02 24 13 24 C12.62246582 23.06933716 12.62246582 23.06933716 12.23730469 22.11987305 C11.08700077 19.30394803 9.91875665 16.49581339 8.75 13.6875 C8.35425781 12.71103516 7.95851562 11.73457031 7.55078125 10.72851562 C7.15761719 9.79072266 6.76445312 8.85292969 6.359375 7.88671875 C5.82521973 6.59060669 5.82521973 6.59060669 5.28027344 5.26831055 C3.93768251 2.53474985 3.93768251 2.53474985 0 0 Z " fill="#1A2342" transform="translate(201,81)"/>
<path d="M0 0 C10.23 0 20.46 0 31 0 C33.475 4.95 33.475 4.95 36 10 C36.66 10.33 37.32 10.66 38 11 C39.27253436 7.35206816 40.32829194 3.8063457 41 0 C43.64 0 46.28 0 49 0 C48.278125 0.66 47.55625 1.32 46.8125 2 C42.0284136 6.87976813 38.71277635 11.3533805 38.5 18.375 C38.44412862 20.8467601 38.44412862 20.8467601 39 23 C39.99 23.66 40.98 24.32 42 25 C38.37 25 34.74 25 31 25 C31.66 24.34 32.32 23.68 33 23 C34.28835435 15.01220301 31.50664694 10.88040211 26.9453125 4.40625 C25.22696226 1.94081515 25.22696226 1.94081515 23 1 C23 1.66 23 2.32 23 3 C20.03 2.67 17.06 2.34 14 2 C14.0866394 5.45960097 14.19347349 8.91649395 14.3125 12.375 C14.33505859 13.35984375 14.35761719 14.3446875 14.38085938 15.359375 C14.41630859 16.30039063 14.45175781 17.24140625 14.48828125 18.2109375 C14.51446533 19.08024902 14.54064941 19.94956055 14.56762695 20.84521484 C14.81345218 23.38600027 14.81345218 23.38600027 18 25 C14.37 25 10.74 25 7 25 C7.66 24.34 8.32 23.68 9 23 C9.37004294 20.77341846 9.37004294 20.77341846 9.4140625 18.2109375 C9.45273437 17.26992187 9.49140625 16.32890625 9.53125 15.359375 C9.5621875 14.37453125 9.593125 13.3896875 9.625 12.375 C9.68300781 10.88613281 9.68300781 10.88613281 9.7421875 9.3671875 C9.8366314 6.91164615 9.92219875 4.4561159 10 2 C4.8306511 2.40556131 4.8306511 2.40556131 0 4 C0 2.68 0 1.36 0 0 Z " fill="#131A3C" transform="translate(312,81)"/>
<path d="M0 0 C2.41734542 -0.08117951 4.83194949 -0.14056926 7.25 -0.1875 C7.93191406 -0.21263672 8.61382812 -0.23777344 9.31640625 -0.26367188 C12.59199289 -0.31137459 14.65348556 -0.21085076 17.484375 1.51171875 C17.98453125 2.00285156 18.4846875 2.49398437 19 3 C18.5251065 7.11574371 17.9789756 10.36383344 16 14 C17.10281127 15.27200971 18.20730769 16.54255853 19.3125 17.8125 C20.23482422 18.87404297 20.23482422 18.87404297 21.17578125 19.95703125 C22.73334335 21.70136739 24.32658875 23.36778041 26 25 C22.39085598 25.33573433 20.49846099 25.30857109 17.375 23.375 C15 21 15 21 12.9375 17.8125 C11.33186679 14.86725199 11.33186679 14.86725199 8.87890625 14.32421875 C8.25886719 14.21722656 7.63882812 14.11023438 7 14 C7.08708669 15.45945288 7.19526907 16.91765868 7.3125 18.375 C7.39951172 19.59316406 7.39951172 19.59316406 7.48828125 20.8359375 C7.82990528 23.37921338 7.82990528 23.37921338 11 25 C7.37 25 3.74 25 0 25 C0.66 24.34 1.32 23.68 2 23 C2.37051993 20.6754661 2.37051993 20.6754661 2.4140625 17.9921875 C2.45273438 17.00605469 2.49140625 16.01992187 2.53125 15.00390625 C2.5621875 13.97136719 2.593125 12.93882813 2.625 11.875 C2.66367188 10.83472656 2.70234375 9.79445313 2.7421875 8.72265625 C2.83664766 6.14861689 2.92221214 3.57458845 3 1 C2.01 0.67 1.02 0.34 0 0 Z " fill="#151C3C" transform="translate(252,81)"/>
<path d="M0 0 C3.96 0 7.92 0 12 0 C11.01 0.495 11.01 0.495 10 1 C10 12.55 10 24.1 10 36 C10.66 36.33 11.32 36.66 12 37 C8.37 37 4.74 37 1 37 C1.0721875 35.65808594 1.144375 34.31617188 1.21875 32.93359375 C1.77129588 22.27566339 2.1475508 11.67284085 2 1 C1.34 0.67 0.68 0.34 0 0 Z " fill="#28314D" transform="translate(344,27)"/>
<path d="M0 0 C3.54822446 0.57881268 5.18422803 1.82692359 7.671875 4.37890625 C8.33574219 5.05244141 8.99960938 5.72597656 9.68359375 6.41992188 C10.36550781 7.12697266 11.04742187 7.83402344 11.75 8.5625 C12.44738281 9.27341797 13.14476562 9.98433594 13.86328125 10.71679688 C15.58235498 12.47119403 17.29208913 14.23473392 19 16 C19.33 11.05 19.66 6.1 20 1 C19.01 0.67 18.02 0.34 17 0 C19.97 0 22.94 0 26 0 C25.01 0.33 24.02 0.66 23 1 C23 8.92 23 16.84 23 25 C19.80586227 23.40293113 18.08031428 22.36072526 15.58203125 20.03125 C14.96779297 19.46019531 14.35355469 18.88914062 13.72070312 18.30078125 C13.09099609 17.70652344 12.46128906 17.11226562 11.8125 16.5 C11.17119141 15.90574219 10.52988281 15.31148437 9.86914062 14.69921875 C5.13502139 10.27004278 5.13502139 10.27004278 4 8 C3.91923037 10.45898655 3.85962857 12.91533742 3.8125 15.375 C3.78736328 16.07367188 3.76222656 16.77234375 3.73632812 17.4921875 C3.67021439 19.76747677 3.67021439 19.76747677 4 23 C4.99 23.66 5.98 24.32 7 25 C3.7 25 0.4 25 -3 25 C-2.34 24.34 -1.68 23.68 -1 23 C-0.62904292 20.57753405 -0.62904292 20.57753405 -0.5859375 17.7734375 C-0.54726562 16.7421875 -0.50859375 15.7109375 -0.46875 14.6484375 C-0.4378125 13.56820312 -0.406875 12.48796875 -0.375 11.375 C-0.33632812 10.28703125 -0.29765625 9.1990625 -0.2578125 8.078125 C-0.16333753 5.38558835 -0.07777569 2.69306243 0 0 Z " fill="#2C334E" transform="translate(159,81)"/>
<path d="M0 0 C3.3 0 6.6 0 10 0 C9.01 0.495 9.01 0.495 8 1 C8.10962816 4.1257396 8.24031241 7.25024781 8.375 10.375 C8.4059375 11.26445313 8.436875 12.15390625 8.46875 13.0703125 C8.50742188 13.92109375 8.54609375 14.771875 8.5859375 15.6484375 C8.6173584 16.43395996 8.6487793 17.21948242 8.68115234 18.02880859 C8.8399465 20.23002939 8.8399465 20.23002939 11 22 C14.5 22.41666667 14.5 22.41666667 18 22 C20.0140956 18.9788566 20.26836596 18.19339983 20.4140625 14.76953125 C20.45273438 13.96708984 20.49140625 13.16464844 20.53125 12.33789062 C20.57765625 11.08782227 20.57765625 11.08782227 20.625 9.8125 C20.66367188 8.96751953 20.70234375 8.12253906 20.7421875 7.25195312 C20.83636279 5.16832476 20.91926675 3.08419247 21 1 C20.01 0.67 19.02 0.34 18 0 C20.97 0 23.94 0 27 0 C26.01 0.33 25.02 0.66 24 1 C24.05220703 2.75376953 24.05220703 2.75376953 24.10546875 4.54296875 C24.13361716 6.09113141 24.16091619 7.63930968 24.1875 9.1875 C24.21263672 9.95642578 24.23777344 10.72535156 24.26367188 11.51757812 C24.32380764 16.18812274 24.05424203 19.21957455 21 23 C16.77845244 25.81436504 12.96024032 25.68304949 8 25 C5.42362529 23.11484777 4.40332572 21.80665143 3 19 C2.91691362 17.62451844 2.89263984 16.24514204 2.90234375 14.8671875 C2.90717773 13.65869141 2.90717773 13.65869141 2.91210938 12.42578125 C2.92048828 11.58402344 2.92886719 10.74226563 2.9375 9.875 C2.94201172 9.02550781 2.94652344 8.17601563 2.95117188 7.30078125 C2.96297126 5.20049091 2.98090694 3.1002367 3 1 C2.01 0.67 1.02 0.34 0 0 Z " fill="#343B56" transform="translate(127,81)"/>
<path d="M0 0 C0 1.65 0 3.3 0 5 C-0.391875 4.505 -0.78375 4.01 -1.1875 3.5 C-3.55091715 1.54406857 -5.01435003 1.75792027 -8 2 C-8.33 3.65 -8.66 5.3 -9 7 C-8.36191406 7.35191406 -7.72382813 7.70382813 -7.06640625 8.06640625 C-0.35687098 12.07537974 -0.35687098 12.07537974 1.375 16.5625 C1 20 1 20 -0.875 22.9375 C-5.02988616 25.67972486 -8.16549414 25.47397116 -13 25 C-13.33 23.35 -13.66 21.7 -14 20 C-13.34 20.66 -12.68 21.32 -12 22 C-8.41656024 22.16677282 -8.41656024 22.16677282 -5 22 C-4.67 20.35 -4.34 18.7 -4 17 C-4.63808594 16.50628906 -5.27617187 16.01257813 -5.93359375 15.50390625 C-6.75988281 14.86324219 -7.58617187 14.22257812 -8.4375 13.5625 C-9.26121094 12.92441406 -10.08492188 12.28632812 -10.93359375 11.62890625 C-13.96797804 9.23696249 -13.96797804 9.23696249 -14.3125 6.6875 C-14 4 -14 4 -12.625 1.6875 C-8.60769589 -0.89505264 -4.64855591 -0.31936644 0 0 Z " fill="#1A2341" transform="translate(293,81)"/>
<path d="M0 0 C2.64 0 5.28 0 8 0 C6.9171875 0.99 6.9171875 0.99 5.8125 2 C1.0284136 6.87976813 -2.28722365 11.3533805 -2.5 18.375 C-2.55587138 20.8467601 -2.55587138 20.8467601 -2 23 C-1.01 23.66 -0.02 24.32 1 25 C-2.63 25 -6.26 25 -10 25 C-9.34 24.34 -8.68 23.68 -8 23 C-6.91988375 16.30327927 -8.20040757 13.12554497 -12 7.5 C-12.7425 6.4790625 -13.485 5.458125 -14.25 4.40625 C-16 2 -16 2 -16 1 C-14.02 1 -12.04 1 -10 1 C-9.66226562 1.63808594 -9.32453125 2.27617188 -8.9765625 2.93359375 C-8.53054688 3.75988281 -8.08453125 4.58617188 -7.625 5.4375 C-7.18414062 6.26121094 -6.74328125 7.08492188 -6.2890625 7.93359375 C-5.16581441 10.13466578 -5.16581441 10.13466578 -3 11 C-1.72746564 7.35206816 -0.67170806 3.8063457 0 0 Z " fill="#1A2341" transform="translate(353,81)"/>
<path d="M0 0 C2.97 0 5.94 0 9 0 C8.01 0.495 8.01 0.495 7 1 C7.10954408 4.62564187 7.2402496 8.25021431 7.375 11.875 C7.4059375 12.90753906 7.436875 13.94007812 7.46875 15.00390625 C7.50742187 15.99003906 7.54609375 16.97617188 7.5859375 17.9921875 C7.6173584 18.90339355 7.6487793 19.81459961 7.68115234 20.75341797 C7.79882511 23.19931186 7.79882511 23.19931186 10 25 C6.7 25 3.4 25 0 25 C0.66 24.67 1.32 24.34 2 24 C2 16.41 2 8.82 2 1 C1.34 0.67 0.68 0.34 0 0 Z " fill="#26304A" transform="translate(299,81)"/>
<path d="M0 0 C1.05465454 -0.00193359 1.05465454 -0.00193359 2.13061523 -0.00390625 C5.7409633 0.07480318 7.29210958 0.31973972 10.375 2.375 C3.115 2.705 -4.145 3.035 -11.625 3.375 C-11.955 4.035 -12.285 4.695 -12.625 5.375 C-11.635 5.705 -10.645 6.035 -9.625 6.375 C-12.16454308 6.90884694 -14.7056935 7.42730194 -17.25 7.9375 C-17.96285156 8.08896484 -18.67570312 8.24042969 -19.41015625 8.39648438 C-23.78517964 9.2594477 -27.20561174 9.42756724 -31.625 8.375 C-31.295 7.055 -30.965 5.735 -30.625 4.375 C-20.47427757 2.12692364 -10.43678718 -0.01840906 0 0 Z " fill="#27304C" transform="translate(67.625,13.625)"/>
<path d="M0 0 C0.99 0 1.98 0 3 0 C3.33 2.97 3.66 5.94 4 9 C6.64 9 9.28 9 12 9 C12 10.65 12 12.3 12 14 C11.34 13.34 10.68 12.68 10 12 C8.01178687 11.60235737 6.01055661 11.26224651 4 11 C4.33 14.3 4.66 17.6 5 21 C8.41656024 21.16677282 8.41656024 21.16677282 12 21 C12.66 20.34 13.32 19.68 14 19 C13.67 20.65 13.34 22.3 13 24 C7.72 24 2.44 24 -3 24 C-2.34 23.67 -1.68 23.34 -1 23 C-0.67 15.41 -0.34 7.82 0 0 Z " fill="#131D3B" transform="translate(234,82)"/>
<path d="M0 0 C3.3 0 6.6 0 10 0 C9.01 0.33 8.02 0.66 7 1 C7.08060591 4.62592996 7.19346817 8.25014402 7.3125 11.875 C7.33505859 12.90753906 7.35761719 13.94007812 7.38085938 15.00390625 C7.41630859 15.99003906 7.45175781 16.97617188 7.48828125 17.9921875 C7.51446533 18.90339355 7.54064941 19.81459961 7.56762695 20.75341797 C7.71031006 21.49479004 7.85299316 22.23616211 8 23 C8.99 23.66 9.98 24.32 11 25 C7.37 25 3.74 25 0 25 C0.66 24.34 1.32 23.68 2 23 C2.37051993 20.6754661 2.37051993 20.6754661 2.4140625 17.9921875 C2.45273438 17.00605469 2.49140625 16.01992187 2.53125 15.00390625 C2.5621875 13.97136719 2.593125 12.93882813 2.625 11.875 C2.66367188 10.83472656 2.70234375 9.79445313 2.7421875 8.72265625 C2.83664766 6.14861689 2.92221214 3.57458845 3 1 C2.01 0.67 1.02 0.34 0 0 Z " fill="#151B3D" transform="translate(190,81)"/>
<path d="M0 0 C0 3.3 0 6.6 0 10 C-0.66 10 -1.32 10 -2 10 C-2.2475 9.21625 -2.495 8.4325 -2.75 7.625 C-4.22615947 4.52506511 -4.84926098 4.16079859 -8 3 C-10.94745621 2.72141781 -10.94745621 2.72141781 -14.0625 2.8125 C-15.10535156 2.81894531 -16.14820313 2.82539063 -17.22265625 2.83203125 C-20.08614608 2.88517035 -20.08614608 2.88517035 -23 4 C-23.33 2.68 -23.66 1.36 -24 0 C-16.68391474 -2.43869509 -7.53052517 -1.43438575 0 0 Z " fill="#2C354F" transform="translate(308,27)"/>
<path d="M0 0 C3.3 0 6.6 0 10 0 C9.34 0.66 8.68 1.32 8 2 C7.70863631 5.14967841 7.58504674 8.25410486 7.52148438 11.4140625 C7.35489371 15.54226034 6.8998264 17.98418055 4 21 C2.8517315 18.703463 2.88438825 17.41686833 2.90234375 14.8671875 C2.90717773 13.65869141 2.90717773 13.65869141 2.91210938 12.42578125 C2.92048828 11.58402344 2.92886719 10.74226563 2.9375 9.875 C2.94201172 9.02550781 2.94652344 8.17601563 2.95117188 7.30078125 C2.96297126 5.20049091 2.98090694 3.1002367 3 1 C2.01 0.67 1.02 0.34 0 0 Z " fill="#101A3A" transform="translate(127,81)"/>
<path d="M0 0 C0.66 0 1.32 0 2 0 C2 1.98 2 3.96 2 6 C2.66 6.33 3.32 6.66 4 7 C3.96519531 8.13179687 3.93039063 9.26359375 3.89453125 10.4296875 C3.86639664 11.91144353 3.83909613 13.39321556 3.8125 14.875 C3.78736328 15.62136719 3.76222656 16.36773437 3.73632812 17.13671875 C3.6701236 19.56221828 3.6701236 19.56221828 4 23 C4.99 23.66 5.98 24.32 7 25 C3.7 25 0.4 25 -3 25 C-2.34 24.34 -1.68 23.68 -1 23 C-0.62904292 20.57753405 -0.62904292 20.57753405 -0.5859375 17.7734375 C-0.54726562 16.7421875 -0.50859375 15.7109375 -0.46875 14.6484375 C-0.4378125 13.56820312 -0.406875 12.48796875 -0.375 11.375 C-0.33632812 10.28703125 -0.29765625 9.1990625 -0.2578125 8.078125 C-0.16333753 5.38558835 -0.07777569 2.69306243 0 0 Z " fill="#2F3852" transform="translate(159,81)"/>
<path d="M0 0 C2.875 -0.1875 2.875 -0.1875 6 0 C8.56687367 3.8503105 7.83288724 5.58569763 7 10 C5.0085944 10.38133299 3.00720923 10.71325582 1 11 C0 10 0 10 -0.09765625 7.71484375 C-0.08605469 6.79832031 -0.07445312 5.88179688 -0.0625 4.9375 C-0.05347656 4.01839844 -0.04445313 3.09929687 -0.03515625 2.15234375 C-0.02355469 1.44207031 -0.01195312 0.73179688 0 0 Z " fill="#EDEEF0" transform="translate(259,83)"/>
<path d="M0 0 C3.3 0 6.6 0 10 0 C10.12375 0.886875 10.2475 1.77375 10.375 2.6875 C10.86693802 5.95133487 10.86693802 5.95133487 12.125 8.625 C13.10085704 11.27375481 12.96382536 12.39767153 12 15 C11.01 15 10.02 15 9 15 C8.60167969 14.08476563 8.20335937 13.16953125 7.79296875 12.2265625 C7.26316406 11.03804687 6.73335937 9.84953125 6.1875 8.625 C5.66542969 7.44164063 5.14335937 6.25828125 4.60546875 5.0390625 C3.19594073 1.78641755 3.19594073 1.78641755 0 0 Z " fill="#1C2443" transform="translate(201,81)"/>
<path d="M0 0 C0.33 0 0.66 0 1 0 C0.67 2.64 0.34 5.28 0 8 C-9.57 8 -19.14 8 -29 8 C-29 7.67 -29 7.34 -29 7 C-28.32420898 6.9498877 -27.64841797 6.89977539 -26.95214844 6.84814453 C-23.88403941 6.61574397 -20.81708639 6.37051349 -17.75 6.125 C-16.15478516 6.00705078 -16.15478516 6.00705078 -14.52734375 5.88671875 C-13.50253906 5.80292969 -12.47773438 5.71914063 -11.421875 5.6328125 C-10.00793457 5.52283936 -10.00793457 5.52283936 -8.56542969 5.41064453 C-5.94267724 4.99082443 -4.2279741 4.43192103 -2 3 C-1.34 2.01 -0.68 1.02 0 0 Z " fill="#101A3B" transform="translate(160,56)"/>
<path d="M0 0 C2.97 0 5.94 0 9 0 C8.01 0.33 7.02 0.66 6 1 C6.02320313 2.20398438 6.04640625 3.40796875 6.0703125 4.6484375 C6.08906863 6.22395215 6.10726899 7.79947348 6.125 9.375 C6.15013672 10.56609375 6.15013672 10.56609375 6.17578125 11.78125 C6.19335473 13.85492015 6.10335168 15.92883241 6 18 C5.34 18.66 4.68 19.32 4 20 C3 19 3 19 2.88647461 17.23413086 C2.89432983 16.11083374 2.89432983 16.11083374 2.90234375 14.96484375 C2.90717773 13.75151367 2.90717773 13.75151367 2.91210938 12.51367188 C2.92048828 11.66353516 2.92886719 10.81339844 2.9375 9.9375 C2.94201172 9.08349609 2.94652344 8.22949219 2.95117188 7.34960938 C2.96299627 5.23304337 2.98093231 3.11651315 3 1 C2.01 0.67 1.02 0.34 0 0 Z " fill="#0D1234" transform="translate(145,81)"/>
<path d="M0 0 C6.27 0 12.54 0 19 0 C19 1.65 19 3.3 19 5 C18.34 4.34 17.68 3.68 17 3 C14.67724823 2.59952556 12.34260643 2.2602896 10 2 C10 4.64 10 7.28 10 10 C9.67 10 9.34 10 9 10 C9 7.03 9 4.06 9 1 C8.01 1 7.02 1 6 1 C6 7.93 6 14.86 6 22 C5.67 22 5.34 22 5 22 C5 15.07 5 8.14 5 1 C3.35 1 1.7 1 0 1 C0 0.67 0 0.34 0 0 Z " fill="#434B61" transform="translate(228,81)"/>
<path d="M0 0 C0.99 0 1.98 0 3 0 C3.93901926 1.40852889 4.87046652 2.82311096 5.75 4.26953125 C7.65337251 6.90451257 10.08498038 8.78020488 12.609375 10.80078125 C13.06828125 11.19652344 13.5271875 11.59226562 14 12 C14 12.33 14 12.66 14 13 C10.40961276 13.33398951 8.46681528 13.27140423 5.3125 11.4375 C2.28499741 8.24634862 0 4.56251708 0 0 Z " fill="#222B47" transform="translate(264,93)"/>
<path d="M0 0 C0.66 0 1.32 0 2 0 C1.67 2.31 1.34 4.62 1 7 C-6.59 7 -14.18 7 -22 7 C-21.34 6.34 -20.68 5.68 -20 5 C-17.86578373 5 -15.73115062 5.00699446 -13.59765625 5.0625 C-9.29262489 4.9589203 -5.18028674 3.97743657 -1 3 C-0.67 2.01 -0.34 1.02 0 0 Z " fill="#000930" transform="translate(264,57)"/>
<path d="M0 0 C8.25 0 16.5 0 25 0 C25 2.31 25 4.62 25 7 C24.34 6.01 23.68 5.02 23 4 C15.7160957 1.67646063 7.58488355 1.50301147 0 1 C0 0.67 0 0.34 0 0 Z " fill="#0C1236" transform="translate(167,27)"/>
<path d="M0 0 C0.33 0 0.66 0 1 0 C0.52264808 6.32491289 0.52264808 6.32491289 -1.5 8.9375 C-5.28312021 10.54532609 -8.94720285 10.23381522 -13 10 C-13.33 8.35 -13.66 6.7 -14 5 C-13.34 5.66 -12.68 6.32 -12 7 C-8.306493 7.20146402 -5.52059568 7.17353189 -2 6 C-1.855625 5.195625 -1.71125 4.39125 -1.5625 3.5625 C-1 1 -1 1 0 0 Z " fill="#222A47" transform="translate(293,96)"/>
<path d="M0 0 C0.33 0 0.66 0 1 0 C1.04254356 1.99954746 1.04080783 4.00041636 1 6 C0 7 0 7 -2.22485352 7.11352539 C-3.18319092 7.10828857 -4.14152832 7.10305176 -5.12890625 7.09765625 C-6.68061523 7.09282227 -6.68061523 7.09282227 -8.26367188 7.08789062 C-9.35228516 7.07951172 -10.44089844 7.07113281 -11.5625 7.0625 C-13.2012207 7.05573242 -13.2012207 7.05573242 -14.87304688 7.04882812 C-17.58208495 7.03699826 -20.29101599 7.02051543 -23 7 C-23 6.67 -23 6.34 -23 6 C-12.11 5.01 -12.11 5.01 -1 4 C-0.67 2.68 -0.34 1.36 0 0 Z " fill="#0E1639" transform="translate(193,57)"/>
<path d="M0 0 C2.97 0 5.94 0 9 0 C8.01 0.33 7.02 0.66 6 1 C6 6.28 6 11.56 6 17 C5.34 17.33 4.68 17.66 4 18 C3.67 12.39 3.34 6.78 3 1 C2.01 0.67 1.02 0.34 0 0 Z " fill="#0E1638" transform="translate(176,81)"/>
<path d="M0 0 C5.28 0 10.56 0 16 0 C16 0.66 16 1.32 16 2 C10.33357449 3.22517308 4.76291482 3.09228867 -1 3 C-0.67 2.01 -0.34 1.02 0 0 Z " fill="#141E3C" transform="translate(56,16)"/>
<path d="M0 0 C0.66 0.33 1.32 0.66 2 1 C0.6015209 4.4087928 -0.85006933 5.87393835 -4 7.75 C-5.051875 8.39195313 -5.051875 8.39195313 -6.125 9.046875 C-8 10 -8 10 -10 10 C-9.07134386 5.93712938 -7.38267431 4.31270784 -4 2.125 C-1.875 0.8203125 -1.875 0.8203125 0 0 Z " fill="#E9EAEC" transform="translate(79,109)"/>
<path d="M0 0 C0 3.3 0 6.6 0 10 C-0.66 10 -1.32 10 -2 10 C-2.2475 9.236875 -2.495 8.47375 -2.75 7.6875 C-4.10995558 4.7635955 -5.31585826 3.69995644 -8 2 C-5.09399739 0.74335022 -3.20395416 0 0 0 Z " fill="#333B53" transform="translate(308,27)"/>
<path d="M0 0 C-0.33 2.64 -0.66 5.28 -1 8 C-1.495 7.360625 -1.99 6.72125 -2.5 6.0625 C-5.98806387 3.18484731 -8.53461041 3.29769264 -13 3 C-13 2.34 -13 1.68 -13 1 C-11.20843648 0.83222817 -9.4167455 0.66581706 -7.625 0.5 C-6.62726563 0.4071875 -5.62953125 0.314375 -4.6015625 0.21875 C-2 0 -2 0 0 0 Z " fill="#121939" transform="translate(192,42)"/>
<path d="M0 0 C0.99 0 1.98 0 3 0 C3 2.64 3 5.28 3 8 C2.34 8 1.68 8 1 8 C1 7.01 1 6.02 1 5 C-4.94 4.01 -4.94 4.01 -11 3 C-11 2.67 -11 2.34 -11 2 C-5.555 1.505 -5.555 1.505 0 1 C0 0.67 0 0.34 0 0 Z " fill="#333C54" transform="translate(231,26)"/>
<path d="M0 0 C0.5625 1.9375 0.5625 1.9375 1 4 C0 5 0 5 -3.59765625 5.09765625 C-5.08596867 5.0909822 -6.57426432 5.07902183 -8.0625 5.0625 C-8.82111328 5.05798828 -9.57972656 5.05347656 -10.36132812 5.04882812 C-12.24091871 5.0370068 -14.12046899 5.01907078 -16 5 C-12.70798713 1.70798713 -8.35792824 2.54032544 -3.87109375 2.34375 C-2.92363281 2.2303125 -1.97617188 2.116875 -1 2 C-0.67 1.34 -0.34 0.68 0 0 Z " fill="#2B324E" transform="translate(247,101)"/>
<path d="M0 0 C5.28 0 10.56 0 16 0 C16 0.33 16 0.66 16 1 C13.36 1 10.72 1 8 1 C8 1.66 8 2.32 8 3 C5.36 2.67 2.72 2.34 0 2 C0 1.34 0 0.68 0 0 Z " fill="#0B1235" transform="translate(327,81)"/>
<path d="M0 0 C0.33 0 0.66 0 1 0 C1.25 5.625 1.25 5.625 -1 9 C-2.32 8.67 -3.64 8.34 -5 8 C-4.19185349 6.66402348 -3.37836819 5.331275 -2.5625 4 C-2.11003906 3.2575 -1.65757812 2.515 -1.19140625 1.75 C-0.79824219 1.1725 -0.40507812 0.595 0 0 Z " fill="#181F3D" transform="translate(307,55)"/>
<path d="M0 0 C2.64 0 5.28 0 8 0 C5.66666667 2.33333333 3.33333333 4.66666667 1 7 C0.34 6.34 -0.32 5.68 -1 5 C-0.625 2.375 -0.625 2.375 0 0 Z " fill="#212948" transform="translate(353,81)"/>
<path d="M0 0 C1.41623216 -0.05447047 2.83308191 -0.09300508 4.25 -0.125 C5.03890625 -0.14820312 5.8278125 -0.17140625 6.640625 -0.1953125 C9.20731941 0.0171622 10.7916067 0.71345895 13 2 C4.57142857 3.42857143 4.57142857 3.42857143 0 1 C0 0.67 0 0.34 0 0 Z " fill="#0E1537" transform="translate(292,26)"/>
<path d="M0 0 C0.66 0 1.32 0 2 0 C1.67 2.31 1.34 4.62 1 7 C-0.32 7 -1.64 7 -3 7 C-3 6.01 -3 5.02 -3 4 C-2.34 3.67 -1.68 3.34 -1 3 C-0.67 2.01 -0.34 1.02 0 0 Z " fill="#313853" transform="translate(264,57)"/>
<path d="M0 0 C1.65 0 3.3 0 5 0 C3.68 2.31 2.36 4.62 1 7 C0.67 7 0.34 7 0 7 C0 4.69 0 2.38 0 0 Z " fill="#121C3C" transform="translate(223,81)"/>
<path d="M0 0 C1.670625 0.061875 1.670625 0.061875 3.375 0.125 C3.375 1.775 3.375 3.425 3.375 5.125 C2.715 4.465 2.055 3.805 1.375 3.125 C-0.94775177 2.72452556 -3.28239357 2.3852896 -5.625 2.125 C-3.625 0.125 -3.625 0.125 0 0 Z " fill="#202846" transform="translate(243.625,80.875)"/>
<path d="M0 0 C0.33 0 0.66 0 1 0 C1.33 3.3 1.66 6.6 2 10 C0.02 10 -1.96 10 -4 10 C-3.525625 9.46375 -3.05125 8.9275 -2.5625 8.375 C-0.71813924 5.57157164 -0.37543153 3.30379742 0 0 Z " fill="#1F2944" transform="translate(237,94)"/>
<path d="M0 0 C0.66 0.99 1.32 1.98 2 3 C1.125 6.1875 1.125 6.1875 0 9 C-0.66 8.67 -1.32 8.34 -2 8 C-1.125 2.25 -1.125 2.25 0 0 Z " fill="#2C3350" transform="translate(222,85)"/>
<path d="M0 0 C2.97 0.495 2.97 0.495 6 1 C5.01 1.495 5.01 1.495 4 2 C4 2.66 4 3.32 4 4 C3.01 4.495 3.01 4.495 2 5 C1.34 5.99 0.68 6.98 0 8 C0 5.36 0 2.72 0 0 Z " fill="#282F4B" transform="translate(131,27)"/>
<path d="M0 0 C0.66 0 1.32 0 2 0 C2 0.66 2 1.32 2 2 C2.66 2.33 3.32 2.66 4 3 C3.34 3 2.68 3 2 3 C1.34 4.65 0.68 6.3 0 8 C-0.33 8 -0.66 8 -1 8 C-0.67 5.36 -0.34 2.72 0 0 Z " fill="#363D57" transform="translate(199,26)"/>
<path d="M0 0 C-0.66 0 -1.32 0 -2 0 C-2.33 1.32 -2.66 2.64 -3 4 C-5.475 3.01 -5.475 3.01 -8 2 C-7 0 -7 0 -5.125 -0.6875 C-3 -1 -3 -1 0 0 Z " fill="#28314B" transform="translate(308,28)"/>
<path d="M0 0 C2.97 0 5.94 0 9 0 C9 1.65 9 3.3 9 5 C8.62875 4.505 8.2575 4.01 7.875 3.5 C5.25305607 1.40244486 3.26157528 1.78256165 0 2 C0 1.34 0 0.68 0 0 Z " fill="#0B0E2F" transform="translate(284,81)"/>
</svg>
